<svg xmlns="http://www.w3.org/2000/svg" xmlns:xlink="http://www.w3.org/1999/xlink" width="39.02" height="39.04" viewBox="0 0 39.02 39.04">
  <defs>
    <linearGradient id="linear-gradient" x1="-0.25" y1="0.5" x2="1.25" y2="0.5" gradientUnits="objectBoundingBox">
      <stop offset="0" stop-color="#6c6c6c"/>
      <stop offset="1"/>
    </linearGradient>
  </defs>
  <g id="apple" transform="translate(-1101.31 -671.98)">
    <ellipse id="Ellipse_1" data-name="Ellipse 1" cx="19.51" cy="19.52" rx="19.51" ry="19.52" transform="translate(1101.31 671.98)" fill="url(#linear-gradient)"/>
    <g id="Group_75" data-name="Group 75" transform="translate(0 -2)">
      <g id="XMLID_228_" transform="translate(1111 682)">
        <path id="XMLID_229_" d="M2.671,7.352c-1.691,2.934-.616,7.387,1.254,10.087C4.858,18.788,5.8,20,7.1,20h.074a3.918,3.918,0,0,0,1.472-.392,4.032,4.032,0,0,1,1.744-.413,3.792,3.792,0,0,1,1.66.4,3.517,3.517,0,0,0,1.59.381c1.458-.027,2.353-1.335,3.143-2.488a11.028,11.028,0,0,0,1.377-2.82l.006-.018a.164.164,0,0,0-.087-.2l-.012-.005a4.179,4.179,0,0,1-2.532-3.827,4.3,4.3,0,0,1,2.033-3.6l.016-.01a.164.164,0,0,0,.047-.23,4.731,4.731,0,0,0-3.721-2.021c-.106-.011-.215-.016-.325-.016a6.486,6.486,0,0,0-2.335.583,3.753,3.753,0,0,1-1.119.334,3.66,3.66,0,0,1-1.157-.338A5.607,5.607,0,0,0,6.932,4.8H6.88A5,5,0,0,0,2.671,7.352Z" fill="#fff"/>
        <path id="XMLID_230_" d="M13.908,0a4.566,4.566,0,0,0-3.015,1.546A4.278,4.278,0,0,0,9.811,4.719a.164.164,0,0,0,.15.142c.07.005.141.008.212.008A3.863,3.863,0,0,0,13.018,3.41,4.511,4.511,0,0,0,14.078.146.165.165,0,0,0,13.908,0Z" fill="#fff"/>
      </g>
    </g>
  </g>
</svg>
