<svg xmlns="http://www.w3.org/2000/svg" width="376" height="132" viewBox="0 0 376 132">
  <g id="Group_74" data-name="Group 74" transform="translate(0 -680)">
    <rect id="Rectangle_258" data-name="Rectangle 258" width="375" height="131" transform="translate(0 681)" fill="none"/>
    <g id="_illustration1" data-name=" illustration1" transform="translate(21 680)" opacity="0.361">
      <g id="_illustration" data-name=" illustration">
        <rect id="圆角矩形_16" data-name="圆角矩形 16" width="349" height="2" rx="1" transform="translate(6 130)" fill="rgba(255,255,255,0)"/>
        <g id="city_illustration" data-name="city illustration">
          <g id="建筑1">
            <rect id="圆角矩形_6" data-name="圆角矩形 6" width="30" height="80" rx="2" transform="translate(15 51)" fill="rgba(255,255,255,0)" stroke="#cbd6e3" stroke-linejoin="round" stroke-width="2"/>
            <rect id="圆角矩形_6_拷贝_2" data-name="圆角矩形 6 拷贝 2" width="6" height="8" rx="1" transform="translate(21 58)" fill="rgba(255,255,255,0)" stroke="#cbd6e3" stroke-linejoin="round" stroke-width="2"/>
            <rect id="圆角矩形_6_拷贝_3" data-name="圆角矩形 6 拷贝 3" width="6" height="8" rx="1" transform="translate(33 58)" fill="rgba(255,255,255,0)" stroke="#cbd6e3" stroke-linejoin="round" stroke-width="2"/>
            <rect id="圆角矩形_6_拷贝_4" data-name="圆角矩形 6 拷贝 4" width="6" height="8" rx="1" transform="translate(21 72)" fill="rgba(255,255,255,0)" stroke="#cbd6e3" stroke-linejoin="round" stroke-width="2"/>
            <rect id="圆角矩形_6_拷贝_4-2" data-name="圆角矩形 6 拷贝 4" width="6" height="8" rx="1" transform="translate(33 72)" fill="rgba(255,255,255,0)" stroke="#cbd6e3" stroke-linejoin="round" stroke-width="2"/>
            <rect id="圆角矩形_6_拷贝_5" data-name="圆角矩形 6 拷贝 5" width="6" height="8" rx="1" transform="translate(21 86)" fill="rgba(255,255,255,0)" stroke="#cbd6e3" stroke-linejoin="round" stroke-width="2"/>
            <rect id="圆角矩形_6_拷贝_5-2" data-name="圆角矩形 6 拷贝 5" width="6" height="8" rx="1" transform="translate(33 86)" fill="rgba(255,255,255,0)" stroke="#cbd6e3" stroke-linejoin="round" stroke-width="2"/>
            <rect id="圆角矩形_6_拷贝_6" data-name="圆角矩形 6 拷贝 6" width="6" height="8" rx="1" transform="translate(21 100)" fill="rgba(255,255,255,0)" stroke="#cbd6e3" stroke-linejoin="round" stroke-width="2"/>
            <rect id="圆角矩形_6_拷贝_6-2" data-name="圆角矩形 6 拷贝 6" width="6" height="8" rx="1" transform="translate(33 100)" fill="rgba(255,255,255,0)" stroke="#cbd6e3" stroke-linejoin="round" stroke-width="2"/>
            <rect id="圆角矩形_6_拷贝_7" data-name="圆角矩形 6 拷贝 7" width="14" height="17" rx="1" transform="translate(23 114)" fill="rgba(255,255,255,0)" stroke="#cbd6e3" stroke-linejoin="round" stroke-width="2"/>
            <rect id="圆角矩形_7" data-name="圆角矩形 7" width="20" height="2" rx="1" transform="translate(20 113)" fill="rgba(255,255,255,0)"/>
          </g>
          <g id="建筑1_copy" data-name="建筑1 copy">
            <rect id="圆角矩形_6-2" data-name="圆角矩形 6" width="30" height="80" rx="2" transform="translate(114 51)" fill="rgba(255,255,255,0)" stroke="#cbd6e3" stroke-linejoin="round" stroke-width="2"/>
            <rect id="圆角矩形_6_拷贝_2-2" data-name="圆角矩形 6 拷贝 2" width="6" height="8" rx="1" transform="translate(120 58)" fill="rgba(255,255,255,0)" stroke="#cbd6e3" stroke-linejoin="round" stroke-width="2"/>
            <rect id="圆角矩形_6_拷贝_3-2" data-name="圆角矩形 6 拷贝 3" width="6" height="8" rx="1" transform="translate(132 58)" fill="rgba(255,255,255,0)" stroke="#cbd6e3" stroke-linejoin="round" stroke-width="2"/>
            <rect id="圆角矩形_6_拷贝_4-3" data-name="圆角矩形 6 拷贝 4" width="6" height="8" rx="1" transform="translate(120 72)" fill="rgba(255,255,255,0)" stroke="#cbd6e3" stroke-linejoin="round" stroke-width="2"/>
            <rect id="圆角矩形_6_拷贝_4-4" data-name="圆角矩形 6 拷贝 4" width="6" height="8" rx="1" transform="translate(132 72)" fill="rgba(255,255,255,0)" stroke="#cbd6e3" stroke-linejoin="round" stroke-width="2"/>
            <rect id="圆角矩形_6_拷贝_5-3" data-name="圆角矩形 6 拷贝 5" width="6" height="8" rx="1" transform="translate(120 86)" fill="rgba(255,255,255,0)" stroke="#cbd6e3" stroke-linejoin="round" stroke-width="2"/>
            <rect id="圆角矩形_6_拷贝_5-4" data-name="圆角矩形 6 拷贝 5" width="6" height="8" rx="1" transform="translate(132 86)" fill="rgba(255,255,255,0)" stroke="#cbd6e3" stroke-linejoin="round" stroke-width="2"/>
            <rect id="圆角矩形_6_拷贝_6-3" data-name="圆角矩形 6 拷贝 6" width="6" height="8" rx="1" transform="translate(120 100)" fill="rgba(255,255,255,0)" stroke="#cbd6e3" stroke-linejoin="round" stroke-width="2"/>
            <rect id="圆角矩形_6_拷贝_6-4" data-name="圆角矩形 6 拷贝 6" width="6" height="8" rx="1" transform="translate(132 100)" fill="rgba(255,255,255,0)" stroke="#cbd6e3" stroke-linejoin="round" stroke-width="2"/>
            <rect id="圆角矩形_6_拷贝_7-2" data-name="圆角矩形 6 拷贝 7" width="14" height="17" rx="1" transform="translate(122 114)" fill="rgba(255,255,255,0)" stroke="#cbd6e3" stroke-linejoin="round" stroke-width="2"/>
            <rect id="圆角矩形_7-2" data-name="圆角矩形 7" width="20" height="2" rx="1" transform="translate(119 113)" fill="rgba(255,255,255,0)"/>
          </g>
          <g id="建筑1_copy_2" data-name="建筑1 copy 2">
            <rect id="圆角矩形_6-3" data-name="圆角矩形 6" width="30" height="80" rx="2" transform="translate(144 51)" fill="rgba(255,255,255,0)" stroke="#cbd6e3" stroke-linejoin="round" stroke-width="2"/>
            <rect id="圆角矩形_6_拷贝_2-3" data-name="圆角矩形 6 拷贝 2" width="6" height="8" rx="1" transform="translate(150 58)" fill="rgba(255,255,255,0)" stroke="#cbd6e3" stroke-linejoin="round" stroke-width="2"/>
            <rect id="圆角矩形_6_拷贝_3-3" data-name="圆角矩形 6 拷贝 3" width="6" height="8" rx="1" transform="translate(162 58)" fill="rgba(255,255,255,0)" stroke="#cbd6e3" stroke-linejoin="round" stroke-width="2"/>
            <rect id="圆角矩形_6_拷贝_4-5" data-name="圆角矩形 6 拷贝 4" width="6" height="8" rx="1" transform="translate(150 72)" fill="rgba(255,255,255,0)" stroke="#cbd6e3" stroke-linejoin="round" stroke-width="2"/>
            <rect id="圆角矩形_6_拷贝_4-6" data-name="圆角矩形 6 拷贝 4" width="6" height="8" rx="1" transform="translate(162 72)" fill="rgba(255,255,255,0)" stroke="#cbd6e3" stroke-linejoin="round" stroke-width="2"/>
            <rect id="圆角矩形_6_拷贝_5-5" data-name="圆角矩形 6 拷贝 5" width="6" height="8" rx="1" transform="translate(150 86)" fill="rgba(255,255,255,0)" stroke="#cbd6e3" stroke-linejoin="round" stroke-width="2"/>
            <rect id="圆角矩形_6_拷贝_5-6" data-name="圆角矩形 6 拷贝 5" width="6" height="8" rx="1" transform="translate(162 86)" fill="rgba(255,255,255,0)" stroke="#cbd6e3" stroke-linejoin="round" stroke-width="2"/>
            <rect id="圆角矩形_6_拷贝_6-5" data-name="圆角矩形 6 拷贝 6" width="6" height="8" rx="1" transform="translate(150 100)" fill="rgba(255,255,255,0)" stroke="#cbd6e3" stroke-linejoin="round" stroke-width="2"/>
            <rect id="圆角矩形_6_拷贝_6-6" data-name="圆角矩形 6 拷贝 6" width="6" height="8" rx="1" transform="translate(162 100)" fill="rgba(255,255,255,0)" stroke="#cbd6e3" stroke-linejoin="round" stroke-width="2"/>
            <rect id="圆角矩形_6_拷贝_6_copy" data-name="圆角矩形 6 拷贝 6 copy" width="6" height="8" rx="1" transform="translate(150 115)" fill="rgba(255,255,255,0)" stroke="#cbd6e3" stroke-linejoin="round" stroke-width="2"/>
            <rect id="圆角矩形_6_拷贝_6_copy-2" data-name="圆角矩形 6 拷贝 6 copy" width="6" height="8" rx="1" transform="translate(162 115)" fill="rgba(255,255,255,0)" stroke="#cbd6e3" stroke-linejoin="round" stroke-width="2"/>
          </g>
          <g id="建筑2">
            <rect id="圆角矩形_6-4" data-name="圆角矩形 6" width="30" height="110" rx="2" transform="translate(53 21)" fill="rgba(255,255,255,0)" stroke="#cbd6e3" stroke-linejoin="round" stroke-width="2"/>
            <rect id="圆角矩形_8" data-name="圆角矩形 8" width="22" height="4" rx="1" transform="translate(57 25)" fill="rgba(255,255,255,0)" stroke="#cbd6e3" stroke-linejoin="round" stroke-width="2"/>
            <rect id="圆角矩形_8_拷贝" data-name="圆角矩形 8 拷贝" width="22" height="4" rx="1" transform="translate(57 33)" fill="rgba(255,255,255,0)" stroke="#cbd6e3" stroke-linejoin="round" stroke-width="2"/>
            <rect id="圆角矩形_8_拷贝_2" data-name="圆角矩形 8 拷贝 2" width="22" height="4" rx="1" transform="translate(57 41)" fill="rgba(255,255,255,0)" stroke="#cbd6e3" stroke-linejoin="round" stroke-width="2"/>
            <rect id="圆角矩形_8_拷贝_2-2" data-name="圆角矩形 8 拷贝 2" width="22" height="4" rx="1" transform="translate(57 49)" fill="rgba(255,255,255,0)" stroke="#cbd6e3" stroke-linejoin="round" stroke-width="2"/>
            <rect id="圆角矩形_8_拷贝_3" data-name="圆角矩形 8 拷贝 3" width="22" height="4" rx="1" transform="translate(57 57)" fill="rgba(255,255,255,0)" stroke="#cbd6e3" stroke-linejoin="round" stroke-width="2"/>
            <rect id="圆角矩形_8_拷贝_3-2" data-name="圆角矩形 8 拷贝 3" width="22" height="4" rx="1" transform="translate(57 65)" fill="rgba(255,255,255,0)" stroke="#cbd6e3" stroke-linejoin="round" stroke-width="2"/>
            <rect id="圆角矩形_8_拷贝_3-3" data-name="圆角矩形 8 拷贝 3" width="22" height="4" rx="1" transform="translate(57 73)" fill="rgba(255,255,255,0)" stroke="#cbd6e3" stroke-linejoin="round" stroke-width="2"/>
            <rect id="圆角矩形_8_拷贝_3-4" data-name="圆角矩形 8 拷贝 3" width="22" height="4" rx="1" transform="translate(57 81)" fill="rgba(255,255,255,0)" stroke="#cbd6e3" stroke-linejoin="round" stroke-width="2"/>
            <rect id="圆角矩形_8_拷贝_4" data-name="圆角矩形 8 拷贝 4" width="22" height="4" rx="1" transform="translate(57 89)" fill="rgba(255,255,255,0)" stroke="#cbd6e3" stroke-linejoin="round" stroke-width="2"/>
            <rect id="圆角矩形_8_拷贝_4-2" data-name="圆角矩形 8 拷贝 4" width="22" height="4" rx="1" transform="translate(57 97)" fill="rgba(255,255,255,0)" stroke="#cbd6e3" stroke-linejoin="round" stroke-width="2"/>
            <rect id="圆角矩形_8_拷贝_4-3" data-name="圆角矩形 8 拷贝 4" width="22" height="4" rx="1" transform="translate(57 105)" fill="rgba(255,255,255,0)" stroke="#cbd6e3" stroke-linejoin="round" stroke-width="2"/>
            <path id="矩形_1" data-name="矩形 1" d="M78.135,113.013,79,117,68,128v-5Z" fill="rgba(255,255,255,0)" opacity="0.302"/>
            <rect id="圆角矩形_8_拷贝_4-4" data-name="圆角矩形 8 拷贝 4" width="22" height="18" rx="1" transform="translate(57 113)" fill="rgba(255,255,255,0)" stroke="#cbd6e3" stroke-linejoin="round" stroke-width="2"/>
            <rect id="圆角矩形_9" data-name="圆角矩形 9" width="2" height="18" rx="1" transform="translate(67 113)" fill="rgba(255,255,255,0)"/>
          </g>
          <g id="建筑2_copy" data-name="建筑2 copy">
            <rect id="圆角矩形_6-5" data-name="圆角矩形 6" width="30" height="110" rx="2" transform="translate(200 21)" fill="rgba(255,255,255,0)" stroke="#cbd6e3" stroke-linejoin="round" stroke-width="2"/>
            <rect id="圆角矩形_8-2" data-name="圆角矩形 8" width="22" height="4" rx="1" transform="translate(204 25)" fill="rgba(255,255,255,0)" stroke="#cbd6e3" stroke-linejoin="round" stroke-width="2"/>
            <rect id="圆角矩形_8_拷贝-2" data-name="圆角矩形 8 拷贝" width="22" height="4" rx="1" transform="translate(204 33)" fill="rgba(255,255,255,0)" stroke="#cbd6e3" stroke-linejoin="round" stroke-width="2"/>
            <rect id="圆角矩形_8_拷贝_2-3" data-name="圆角矩形 8 拷贝 2" width="22" height="4" rx="1" transform="translate(204 41)" fill="rgba(255,255,255,0)" stroke="#cbd6e3" stroke-linejoin="round" stroke-width="2"/>
            <rect id="圆角矩形_8_拷贝_2-4" data-name="圆角矩形 8 拷贝 2" width="22" height="4" rx="1" transform="translate(204 49)" fill="rgba(255,255,255,0)" stroke="#cbd6e3" stroke-linejoin="round" stroke-width="2"/>
            <rect id="圆角矩形_8_拷贝_3-5" data-name="圆角矩形 8 拷贝 3" width="22" height="4" rx="1" transform="translate(204 57)" fill="rgba(255,255,255,0)" stroke="#cbd6e3" stroke-linejoin="round" stroke-width="2"/>
            <rect id="圆角矩形_8_拷贝_3-6" data-name="圆角矩形 8 拷贝 3" width="22" height="4" rx="1" transform="translate(204 65)" fill="rgba(255,255,255,0)" stroke="#cbd6e3" stroke-linejoin="round" stroke-width="2"/>
            <rect id="圆角矩形_8_拷贝_3-7" data-name="圆角矩形 8 拷贝 3" width="22" height="4" rx="1" transform="translate(204 73)" fill="rgba(255,255,255,0)" stroke="#cbd6e3" stroke-linejoin="round" stroke-width="2"/>
            <rect id="圆角矩形_8_拷贝_3-8" data-name="圆角矩形 8 拷贝 3" width="22" height="4" rx="1" transform="translate(204 81)" fill="rgba(255,255,255,0)" stroke="#cbd6e3" stroke-linejoin="round" stroke-width="2"/>
            <rect id="圆角矩形_8_拷贝_4-5" data-name="圆角矩形 8 拷贝 4" width="22" height="4" rx="1" transform="translate(204 89)" fill="rgba(255,255,255,0)" stroke="#cbd6e3" stroke-linejoin="round" stroke-width="2"/>
            <rect id="圆角矩形_8_拷贝_4-6" data-name="圆角矩形 8 拷贝 4" width="22" height="4" rx="1" transform="translate(204 97)" fill="rgba(255,255,255,0)" stroke="#cbd6e3" stroke-linejoin="round" stroke-width="2"/>
            <rect id="圆角矩形_8_拷贝_4-7" data-name="圆角矩形 8 拷贝 4" width="22" height="4" rx="1" transform="translate(204 105)" fill="rgba(255,255,255,0)" stroke="#cbd6e3" stroke-linejoin="round" stroke-width="2"/>
            <path id="矩形_1-2" data-name="矩形 1" d="M225.135,113.013,226,117l-11,11v-5Z" fill="rgba(255,255,255,0)" opacity="0.302"/>
            <rect id="圆角矩形_8_拷贝_4-8" data-name="圆角矩形 8 拷贝 4" width="22" height="18" rx="1" transform="translate(204 113)" fill="rgba(255,255,255,0)" stroke="#cbd6e3" stroke-linejoin="round" stroke-width="2"/>
            <rect id="圆角矩形_9-2" data-name="圆角矩形 9" width="2" height="18" rx="1" transform="translate(214 113)" fill="rgba(255,255,255,0)"/>
          </g>
          <g id="树">
            <g id="组_7" data-name="组 7">
              <path id="椭圆_8" data-name="椭圆 8" d="M287,84c7.18,0,13,11.163,13,20s-5.82,12-13,12-13-3.163-13-12S279.82,84,287,84Z" fill="rgba(255,255,255,0)" stroke="#cbd6e3" stroke-linejoin="round" stroke-width="2"/>
              <path id="圆角矩形_21" data-name="圆角矩形 21" d="M286,130V114.358l-3.866-3.843a1.011,1.011,0,0,1,.366-1.376,1,1,0,0,1,1.366.369L286,111.63V104a1,1,0,1,1,2,0v6.23l2.134-3.722a1,1,0,0,1,1.366-.368,1.012,1.012,0,0,1,.366,1.375L288,114.258V130a1,1,0,1,1-2,0Z" fill="#cbd6e3"/>
            </g>
            <g id="组_7_拷贝" data-name="组 7 拷贝">
              <path id="椭圆_8-2" data-name="椭圆 8" d="M262,104c4.418,0,8,6.628,8,11.875S266.418,123,262,123s-8-1.878-8-7.125S257.582,104,262,104Z" fill="rgba(255,255,255,0)" stroke="#cbd6e3" stroke-linejoin="round" stroke-width="2"/>
              <rect id="圆角矩形_21-2" data-name="圆角矩形 21" width="2" height="12" rx="1" transform="translate(261 119)" fill="#cbd6e3"/>
            </g>
          </g>
          <g id="sun">
            <circle id="椭圆_1" data-name="椭圆 1" cx="7" cy="7" r="7" transform="translate(281 15)" fill="rgba(255,255,255,0)" stroke="#cbd6e3" stroke-linejoin="round" stroke-width="2"/>
            <path id="圆角矩形_15" data-name="圆角矩形 15" d="M287,35.966v-2a1,1,0,1,1,2,0v2a1,1,0,1,1-2,0Zm10.18-3.389-1.414-1.414a1,1,0,0,1,1.414-1.415l1.415,1.415a1,1,0,0,1-1.415,1.414Zm-19.775,0a1,1,0,0,1,0-1.414l1.415-1.415a1,1,0,0,1,1.414,1.415l-1.414,1.414a1,1,0,0,1-1.415,0Zm22.577-9.594a1,1,0,0,1,0-2h2a1,1,0,1,1,0,2Zm-25.962,0a1,1,0,0,1,0-2h2a1,1,0,1,1,0,2Zm21.746-8.763a1,1,0,0,1,0-1.414l1.414-1.414a1,1,0,1,1,1.415,1.414l-1.415,1.414a1,1,0,0,1-1.414,0Zm-16.946,0L277.405,12.8a1,1,0,0,1,1.415-1.414l1.414,1.414a1,1,0,1,1-1.414,1.414ZM287,10V8a1,1,0,1,1,2,0v2a1,1,0,1,1-2,0Z" fill="rgba(255,255,255,0)"/>
          </g>
          <path id="形状_4" data-name="形状 4" d="M1,8H29m9,0h5" fill="rgba(255,255,255,0)" stroke="#c5d0dd" stroke-linecap="round" stroke-linejoin="round" stroke-width="2"/>
          <path id="形状_4_拷贝" data-name="形状 4 拷贝" d="M312,42h14.589m9.22,0H340m6,0h2" fill="rgba(255,255,255,0)" stroke="#c5d0dd" stroke-linecap="round" stroke-linejoin="round" stroke-width="2"/>
          <path id="形状_4_拷贝_2" data-name="形状 4 拷贝 2" d="M268,1H259.41m-6.219,0H249m-6,0h-2" fill="rgba(255,255,255,0)" stroke="#c5d0dd" stroke-linecap="round" stroke-linejoin="round" stroke-width="2"/>
        </g>
      </g>
    </g>
  </g>
</svg>
