<svg xmlns="http://www.w3.org/2000/svg" xmlns:xlink="http://www.w3.org/1999/xlink" width="39.06" height="39.04" viewBox="0 0 39.06 39.04">
  <defs>
    <linearGradient id="linear-gradient" x1="-0.25" y1="0.5" x2="1.25" y2="0.5" gradientUnits="objectBoundingBox">
      <stop offset="0" stop-color="#ff4f38"/>
      <stop offset="1" stop-color="#ff355d"/>
    </linearGradient>
  </defs>
  <g id="g" transform="translate(-998.89 -671.98)">
    <ellipse id="Ellipse_1" data-name="Ellipse 1" cx="19.53" cy="19.52" rx="19.53" ry="19.52" transform="translate(998.89 671.98)" fill="url(#linear-gradient)"/>
    <path id="Shape_3" data-name="Shape 3" d="M1027.985,690.134q-4.437,0-8.874,0c0,1.259,0,2.518,0,3.777h5.139a4.558,4.558,0,0,1-1.888,2.989,5.313,5.313,0,0,1-2.076.841,6,6,0,0,1-2.251-.007,5.468,5.468,0,0,1-2.1-.93,6.025,6.025,0,0,1-.791-9.022,5.576,5.576,0,0,1,2.816-1.605,5.446,5.446,0,0,1,2.769.116,5.083,5.083,0,0,1,2.033,1.226c.58-.592,1.157-1.187,1.735-1.779.3-.319.622-.624.916-.952a9.091,9.091,0,0,0-3.035-1.93,9.306,9.306,0,0,0-6.352-.057,9.552,9.552,0,0,0-5.342,4.8,9.794,9.794,0,0,0-.82,2.432,9.915,9.915,0,0,0,.819,6.258,9.7,9.7,0,0,0,2.562,3.232,9.3,9.3,0,0,0,3.427,1.773,9.828,9.828,0,0,0,4.824.053,8.444,8.444,0,0,0,3.861-2.061,8.83,8.83,0,0,0,2.386-4.018A11.657,11.657,0,0,0,1027.985,690.134Z" fill="#fff"/>
  </g>
</svg>
