<svg id="Group_76" data-name="Group 76" xmlns="http://www.w3.org/2000/svg" width="22.985" height="15.442" viewBox="0 0 22.985 15.442">
  <path id="Path_241" data-name="Path 241" d="M22.985,15.989a.943.943,0,0,0-.489-.839V9.364a.184.184,0,0,0,0-.334L11.517,4.82a.6.6,0,0,0-.435,0L.109,9.031A.176.176,0,0,0,0,9.2a.178.178,0,0,0,.1.168L11.063,14a.611.611,0,0,0,.474,0l10.2-4.322v5.466a.97.97,0,0,0,.039,1.705,8.351,8.351,0,0,0-.527,2.424.869.869,0,1,0,1.733,0,8.375,8.375,0,0,0-.527-2.424A.945.945,0,0,0,22.985,15.989Z" transform="translate(0 -4.779)" fill="#fac90c"/>
  <path id="Path_242" data-name="Path 242" d="M3.846,11.7c0,1.335,0,2.905,0,3.155,0,2.485,7.207,3.766,7.207,3.766s7.664-1.279,7.664-3.766c0-.248,0-1.819,0-3.155l-7.211,3.188a.556.556,0,0,1-.454,0Z" transform="translate(0 -4.779)" fill="#fac90c"/>
</svg>
