<svg xmlns="http://www.w3.org/2000/svg" width="17" height="18.34" viewBox="0 0 17 18.34">
  <g id="logout" transform="translate(-17.219)">
    <g id="Group_71" data-name="Group 71" transform="translate(17.219)">
      <path id="Path_247" data-name="Path 247" d="M25.408,17.289H20.625a2.358,2.358,0,0,1-2.355-2.355V3.406a2.358,2.358,0,0,1,2.355-2.355h4.861a.525.525,0,0,0,0-1.051H20.625a3.409,3.409,0,0,0-3.406,3.406V14.935a3.409,3.409,0,0,0,3.406,3.406h4.784a.525.525,0,0,0,0-1.051Z" transform="translate(-17.219)" fill="#3b3b3b"/>
      <path id="Path_248" data-name="Path 248" d="M133.344,139.819,130,136.48a.526.526,0,0,0-.743.743l2.444,2.444H121.044a.525.525,0,1,0,0,1.051h10.661l-2.444,2.444a.527.527,0,0,0,.37.9.513.513,0,0,0,.37-.156l3.34-3.34A.525.525,0,0,0,133.344,139.819Z" transform="translate(-116.498 -131.019)" fill="#3b3b3b"/>
    </g>
  </g>
</svg>
