<svg xmlns="http://www.w3.org/2000/svg" width="27.473" height="32.966" viewBox="0 0 27.473 32.966">
  <g id="notification_1_" data-name="notification (1)" transform="translate(-42.657)">
    <g id="Group_33" data-name="Group 33" transform="translate(42.657 4.808)">
      <g id="Group_32" data-name="Group 32">
        <path id="Path_234" data-name="Path 234" d="M70.032,97.665l-2.36-3.931a11.685,11.685,0,0,1-1.663-6.008V84.282a9.615,9.615,0,1,0-19.23,0v3.444a11.685,11.685,0,0,1-1.663,6.008l-2.36,3.931a.686.686,0,0,0,.589,1.04h26.1a.686.686,0,0,0,.589-1.04Zm-25.474-.334,1.735-2.891a13.047,13.047,0,0,0,1.86-6.714V84.282a8.241,8.241,0,1,1,16.483,0v3.444a13.058,13.058,0,0,0,1.858,6.714l1.736,2.891Z" transform="translate(-42.657 -74.667)" fill="#3b3b3b"/>
      </g>
    </g>
    <g id="Group_35" data-name="Group 35" transform="translate(53.647)">
      <g id="Group_34" data-name="Group 34" transform="translate(0)">
        <path id="Path_235" data-name="Path 235" d="M216.08,0a2.75,2.75,0,0,0-2.747,2.747V5.494a.687.687,0,0,0,1.374,0V2.747a1.374,1.374,0,1,1,2.747,0V5.494a.687.687,0,0,0,1.374,0V2.747A2.75,2.75,0,0,0,216.08,0Z" transform="translate(-213.333)" fill="#3b3b3b"/>
      </g>
    </g>
    <g id="Group_37" data-name="Group 37" transform="translate(52.96 27.472)">
      <g id="Group_36" data-name="Group 36" transform="translate(0)">
        <path id="Path_236" data-name="Path 236" d="M209.072,427.018a.688.688,0,0,0-1.187.7,2.06,2.06,0,1,1-3.569,0,.688.688,0,1,0-1.187-.7,3.435,3.435,0,1,0,5.942,0Z" transform="translate(-202.666 -426.68)" fill="#3b3b3b"/>
      </g>
    </g>
  </g>
</svg>
