<svg height="511pt" viewBox="0 -35 511.99986 511" width="511pt" xmlns="http://www.w3.org/2000/svg"><path d="m222.480469 210.640625-21.011719 126.703125-31.480469 22.535156-9.714843 6.953125-27.085938 19.375c-7.625 5.46875-18.050781-1.03125-16.515625-10.277343l16.855469-101.640626zm0 0" fill="#3db4a0"/><path d="m222.480469 210.640625-21.011719 126.703125-31.480469 22.535156-9.714843 6.953125-30.300782-71.117187 3.554688-21.425782zm0 0" fill="#05a592"/><path d="m510.105469 17.011719-289.492188 420.429687c-4.707031 6.832032-15.113281 5.789063-18.367187-1.855468l-4.152344-9.753907-64.5625-151.542969-39.601562-17.53125-17.101563-7.5625-23.1875-10.273437-17.089844-7.570313-33.050781-14.628906c-6.179688-5.539062-3.800781-15.71875 4.183594-17.976562l490.84375-197.804688.0625-.019531c4.738281-1.339844 9.011718.65625 11.402344 3.996094 2.390624 3.347656 2.90625 8.042969.113281 12.09375zm0 0" fill="#74e2cd"/><path d="m510.105469 17.011719-289.492188 420.429687c-4.707031 6.832032-15.113281 5.789063-18.367187-1.855468l-4.152344-9.753907c3.984375.96875 8.5-.382812 11.167969-4.265625l289.265625-420.625.0625-.019531c4.738281-1.339844 9.011718.65625 11.402344 3.996094 2.390624 3.347656 2.90625 8.042969.113281 12.09375zm0 0" fill="#4fceb7"/><path d="m510.105469 17.011719-289.492188 420.429687c-.402343.578125-.835937 1.09375-1.308593 1.554688-.472657.464844-.980469.878906-1.503907 1.238281-.351562.234375-.722656.441406-1.089843.636719-.371094.1875-.753907.351562-1.144532.496094-.382812.132812-.785156.257812-1.175781.347656-3.480469.816406-7.28125-.164063-9.898437-2.777344-.359376-.371094-.703126-.765625-1.019532-1.195312-.164062-.21875-.308594-.445313-.453125-.671876-.277343-.464843-.535156-.957031-.761719-1.484374l-4.164062-9.753907-17.636719-41.382812-6.191406-14.527344-4.273437-10.042969-10.808594-25.363281-6.046875-14.203125-19.601563-46.019531 88.945313-63.644531 259.5625-185.734376 22.902343-16.390624 5.046876-3.605469c2.390624 3.347656 2.90625 8.042969.113281 12.09375zm0 0" fill="#4fceb7"/><path d="m510.105469 17.011719-289.492188 420.429687c-.402343.578125-.835937 1.09375-1.308593 1.554688-.472657.476562-.980469.878906-1.503907 1.238281-.351562.234375-.722656.441406-1.089843.636719-.371094.1875-.753907.351562-1.144532.496094-.382812.132812-.785156.257812-1.175781.347656-3.480469.816406-7.28125-.164063-9.898437-2.777344-.359376-.371094-.710938-.765625-1.019532-1.195312-.164062-.21875-.308594-.445313-.453125-.671876-.289062-.464843-.546875-.957031-.773437-1.484374l-4.152344-9.753907c3.988281.96875 8.5-.382812 11.167969-4.265625l272.78125-396.652344 22.902343-16.390624 5.046876-3.605469c2.390624 3.347656 2.90625 8.042969.113281 12.09375zm0 0" fill="#3db4a0"/><path d="m72.246094 227.230469-18.605469 11.691406-17.089844-7.570313 27.464844-17.203124c3.613281-2.265626 8.382813-1.1875 10.648437 2.429687 2.277344 3.617187 1.1875 8.386719-2.417968 10.652344zm0 0" fill="#4fceb7"/><path d="m115.070312 243.476562-21.136718 13.28125-17.101563-7.5625 30.019531-18.800781c3.617188-2.277343 8.386719-1.1875 10.652344 2.429688 2.273438 3.609375 1.183594 8.375-2.433594 10.652343zm0 0" fill="#4fceb7"/><g fill="#3db4a0"><path d="m187.6875 314.5625-28.503906 19.953125-6.046875-14.207031c.132812-.113282.265625-.214844.410156-.316406l25.148437-18c3.472657-2.480469 8.300782-1.675782 10.785157 1.792968 2.484375 3.460938 1.679687 8.292969-1.792969 10.777344zm0 0"/><path d="m209.796875 363.558594-29.339844 20.890625-6.191406-14.527344 26.539063-18.933594c3.46875-2.484375 8.300781-1.679687 10.785156 1.792969 2.480468 3.472656 1.679687 8.292969-1.792969 10.777344zm0 0"/></g></svg>