<svg xmlns="http://www.w3.org/2000/svg" width="30" height="30" viewBox="0 0 30 30">
  <path id="search" d="M30.207,29.041l-8.741-8.753a11.64,11.64,0,0,0,3.611-8.394A12.144,12.144,0,0,0,12.724,0,12.144,12.144,0,0,0,.371,11.894,12.144,12.144,0,0,0,12.724,23.789,12.586,12.586,0,0,0,20.6,21.052l8.762,8.774a.6.6,0,0,0,.832.016A.552.552,0,0,0,30.207,29.041ZM12.724,22.656A10.987,10.987,0,0,1,1.548,11.894,10.987,10.987,0,0,1,12.724,1.133,10.987,10.987,0,0,1,23.9,11.894,10.988,10.988,0,0,1,12.724,22.656Z" transform="translate(-0.371)" fill="#3b3b3b"/>
</svg>
