<svg id="Layer_1" enable-background="new 0 0 512 512" height="512" viewBox="0 0 512 512" width="512" xmlns="http://www.w3.org/2000/svg"><g><g><path d="m444.406 122.474-104.413-122.474h-83.993l-10.667 266.666 10.667 245.334h188.406z" fill="#fd9402"/><path d="m172.007 0-104.413 122.474v389.526h188.406v-512z" fill="#fdb902"/></g><g><path d="m256 59.667-9.138 49.402 9.138 40.264c24.721 0 44.833-20.112 44.833-44.833s-20.112-44.833-44.833-44.833z" fill="#f7f0eb"/><path d="m211.166 104.5c0 24.721 20.112 44.833 44.834 44.833v-89.666c-24.722 0-44.834 20.112-44.834 44.833z" fill="#fffbf5"/></g><g><g fill="#f7f0eb"><path d="m352 257.264v-30h-96l-10.667 18.069 10.667 11.931z"/><path d="m352 333.466v-30h-96l-10.667 5.867 10.667 24.133z"/><path d="m352 409.667v-30h-96l-10.667 15 10.667 15z"/></g><path d="m160 227.264h96v30h-96z" fill="#fffbf5"/><path d="m160 303.466h96v30h-96z" fill="#fffbf5"/><path d="m160 379.667h96v30h-96z" fill="#fffbf5"/></g></g></svg>