<svg xmlns="http://www.w3.org/2000/svg" xmlns:xlink="http://www.w3.org/1999/xlink" width="39.04" height="39.04" viewBox="0 0 39.04 39.04">
  <defs>
    <linearGradient id="linear-gradient" x1="-0.25" y1="0.5" x2="1.25" y2="0.5" gradientUnits="objectBoundingBox">
      <stop offset="0" stop-color="#17ead9"/>
      <stop offset="1" stop-color="#6078ea"/>
    </linearGradient>
  </defs>
  <g id="tw" transform="translate(-1050.05 -671.98)">
    <circle id="Ellipse_1" data-name="Ellipse 1" cx="19.52" cy="19.52" r="19.52" transform="translate(1050.05 671.98)" fill="url(#linear-gradient)"/>
    <path id="Shape_4" data-name="Shape 4" d="M1081.843,683.781a10,10,0,0,1-2.9.8,5.109,5.109,0,0,0,2.224-2.825,10.064,10.064,0,0,1-3.211,1.24,5.027,5.027,0,0,0-3.691-1.613,5.082,5.082,0,0,0-5.056,5.106,5.165,5.165,0,0,0,.131,1.163,14.308,14.308,0,0,1-10.423-5.335,5.145,5.145,0,0,0,1.565,6.817,5,5,0,0,1-2.29-.639c0,.021,0,.043,0,.065a5.1,5.1,0,0,0,4.056,5.007,5.031,5.031,0,0,1-1.332.179,4.971,4.971,0,0,1-.951-.092,5.068,5.068,0,0,0,4.723,3.546,10.082,10.082,0,0,1-6.28,2.186,10.236,10.236,0,0,1-1.206-.071,14.211,14.211,0,0,0,7.751,2.294c9.3,0,14.387-7.781,14.387-14.528,0-.221,0-.442-.014-.661A10.321,10.321,0,0,0,1081.843,683.781Z" fill="#fff"/>
  </g>
</svg>
