<svg id="Profile" xmlns="http://www.w3.org/2000/svg" xmlns:xlink="http://www.w3.org/1999/xlink" width="155.791" height="155.791" viewBox="0 0 155.791 155.791">
  <defs>
    <clipPath id="clip-path">
      <rect id="Rectangle_19" data-name="Rectangle 19" width="155.791" height="155.791" rx="24.569" fill="none"/>
    </clipPath>
  </defs>
  <path id="Shape" d="M39.325,0h77.142a39.325,39.325,0,0,1,39.325,39.325v77.142a39.325,39.325,0,0,1-39.325,39.325H39.325A39.325,39.325,0,0,1,0,116.467V39.325A39.325,39.325,0,0,1,39.325,0Z" transform="translate(0 0)" fill="#d1d2f4"/>
  <g id="Shape-2" data-name="Shape" transform="translate(0 0)">
    <g id="Group_11" data-name="Group 11" clip-path="url(#clip-path)">
      <g id="Group_10" data-name="Group 10" transform="translate(15.525 19.025)">
        <path id="Path_38" data-name="Path 38" d="M1310.531,512.526c14.594,17-38.36,13.12-67.886,13.51-25.974.342-27.553-6.415-23.967-21.09,5.748-23.525-6.725-30.158-1.171-48.818,8.013-26.931,23.194-38.156,52.1-34.9C1320.768,427,1298.945,499.026,1310.531,512.526Z" transform="translate(-1202.616 -420.681)" fill="#37474f"/>
        <rect id="Rectangle_18" data-name="Rectangle 18" width="27.286" height="30.364" transform="matrix(1, -0.013, 0.013, 1, 48.063, 81.942)" fill="#ffdfae"/>
        <path id="Path_39" data-name="Path 39" d="M1234.68,480.2l-.188-14.064,27.285-.363.161,12.231s-1.7,5.423-12.387,5.564C1238.584,483.716,1234.68,480.2,1234.68,480.2Z" transform="translate(-1186.387 -381.012)" fill="#f4ca92"/>
        <path id="Path_40" data-name="Path 40" d="M1296,463.241c-.775,18.077-18.944,35.094-33.674,35.237-13.033.128-34.281-17.147-37.085-32.333-.3-1.63-7.2-1.128-7.948-10.211-.694-8.5,6.038-.776,6.024-1.82-.193-14.538,5.077-11.152,10.393-6.609,6.641,5.681,38.7,2.434,47.268-1.256,4.522-1.945,9.267,2.408,12.327,7.008.833,1.25,5.476-6.1,6.6-1.615C1301.851,459.387,1296.088,461.094,1296,463.241Z" transform="translate(-1201.565 -400.517)" fill="#ffdfae"/>
        <path id="Path_41" data-name="Path 41" d="M1323.805,523.759c-.164-12.267-34.713-44.256-34.713-44.256l-37.154.951s-43.217,31.275-43.037,44.831Z" transform="translate(-1208.901 -368.934)" fill="#92aed9"/>
      </g>
    </g>
  </g>
</svg>
