<svg id="Profile" xmlns="http://www.w3.org/2000/svg" xmlns:xlink="http://www.w3.org/1999/xlink" width="155.791" height="155.791" viewBox="0 0 155.791 155.791">
  <defs>
    <clipPath id="clip-path">
      <rect id="Rectangle_31" data-name="Rectangle 31" width="155.791" height="155.791" rx="26" fill="#fff"/>
    </clipPath>
  </defs>
  <path id="Path_4907" data-name="Path 4907" d="M42.686,0H113.1a42.686,42.686,0,0,1,42.686,42.686V113.1A42.686,42.686,0,0,1,113.1,155.791H42.686A42.686,42.686,0,0,1,0,113.1V42.686A42.686,42.686,0,0,1,42.686,0Z" transform="translate(0 0)" fill="#d1d2f4"/>
  <g id="Mask_Group_2" data-name="Mask Group 2" transform="translate(0 0)" clip-path="url(#clip-path)">
    <path id="Path_7" data-name="Path 7" d="M449.443,638.361c-1.561,28.095-38.2,32.456-63.956,32.8S339.1,632.3,352.651,579.027c6.94-27.293,20.2-51.445,45.962-51.786S452.723,579.324,449.443,638.361Z" transform="translate(-321.553 -499.887)" fill="#37474f"/>
    <rect id="Rectangle_7" data-name="Rectangle 7" width="23.805" height="31.903" transform="matrix(1, -0.013, 0.013, 1, 67.709, 98.745)" fill="#ffdfae"/>
    <path id="Path_8" data-name="Path 8" d="M373.487,584.86l-.162-12.27,23.8-.317.143,10.671s-1.487,4.731-10.807,4.854C376.9,587.927,373.487,584.86,373.487,584.86Z" transform="translate(-305.579 -469.535)" fill="#f4ca92"/>
    <path id="Path_9" data-name="Path 9" d="M419.854,558.483a77.927,77.927,0,0,1-.348,8.644c-.272,2.768,3.988-5.064,4.93.739,1.176,7.252-7.079,10.5-7.621,12.05-3.888,11.187-11.534,18.679-23.108,20.049-10.479,1.241-20.351-7.583-26.112-19.454-.74-1.527-8.15-1.568-8.778-7.681-.936-9.126,5.389-2.424,4.976-3.883-2.981-10.533-1.245-18.866,8.5-15.384,1.966.7-.435-6.9,1.64-6.56,1.651.274,1.456,6.509,3.28,6.56a40.11,40.11,0,0,0,4.692-.172C398.626,551.873,419.635,541.921,419.854,558.483Z" transform="translate(-314.923 -487.246)" fill="#ffdfae"/>
    <path id="Path_10" data-name="Path 10" d="M447.977,624.075c-.164-12.306-17.119-38.58-29.463-37.177-5.272.6-13.285,3.286-16.617,3.4l-16.944-2.967c-26.616,6.143-37.38,26.016-37.219,38.079Z" transform="translate(-321.955 -461.746)" fill="#f0af56"/>
    <path id="Path_11" data-name="Path 11" d="M388.762,590.2l-20.5,18.741,1.694-22.922Z" transform="translate(-308.819 -462.271)" fill="#fff"/>
    <path id="Path_12" data-name="Path 12" d="M380.56,590.144l20.5,18.74-1.694-22.922Z" transform="translate(-300.949 -462.309)" fill="#fff"/>
  </g>
</svg>
