<svg id="Profile" xmlns="http://www.w3.org/2000/svg" xmlns:xlink="http://www.w3.org/1999/xlink" width="155.791" height="155.791" viewBox="0 0 155.791 155.791">
  <defs>
    <clipPath id="clip-path">
      <rect id="Rectangle_29" data-name="Rectangle 29" width="155.791" height="155.791" rx="24.569" fill="#fff"/>
    </clipPath>
  </defs>
  <path id="Path_239" data-name="Path 239" d="M40.29,0H115.5a40.291,40.291,0,0,1,40.29,40.29V115.5a40.291,40.291,0,0,1-40.29,40.29H40.29A40.291,40.291,0,0,1,0,115.5V40.29A40.29,40.29,0,0,1,40.29,0Z" transform="translate(0 0)" fill="#d1d2f4"/>
  <g id="Mask_Group_1" data-name="Mask Group 1" transform="translate(0 0)" clip-path="url(#clip-path)">
    <path id="Path_3" data-name="Path 3" d="M444.966,467.209c8.531,26.814-21.732,42.024-47.493,42.367S336.6,512.3,350.151,459.027c6.94-27.293,20.2-51.446,45.962-51.787S438.483,446.835,444.966,467.209Z" transform="translate(-319.054 -379.887)" fill="#37474f"/>
    <rect id="Rectangle_2" data-name="Rectangle 2" width="23.805" height="26.49" transform="matrix(1, -0.013, 0.013, 1, 67.709, 98.745)" fill="#ffdfae"/>
    <path id="Path_4" data-name="Path 4" d="M371.487,464.86l-.162-12.27,23.8-.316.143,10.671s-1.487,4.731-10.807,4.854C374.9,467.927,371.487,464.86,371.487,464.86Z" transform="translate(-303.579 -351.069)" fill="#f4ca92"/>
    <path id="Path_5" data-name="Path 5" d="M421.3,447.532c.3,22.514-14.966,39.828-27.814,39.953-10.287.1-23.551-10.728-29.469-27.934-.659-1.912-9.707-4.244-10.058-10.91-.385-7.311,7.147-2.115,7.116-4.433-.449-33.825,29.909-33.726,29.035-21.393C388.147,450.465,421,425.017,421.3,447.532Z" transform="translate(-314.701 -374.764)" fill="#ffdfae"/>
    <path id="Path_6" data-name="Path 6" d="M445.977,506.511c-.192-14.407-22.289-43.846-50.645-43.471s-49.789,30.4-49.6,44.8Z" transform="translate(-316.675 -342.542)" fill="#9bd075"/>
  </g>
</svg>
