<svg xmlns="http://www.w3.org/2000/svg" width="16.369" height="17.872" viewBox="0 0 16.369 17.872">
  <g id="group" transform="translate(-16.005 0)">
    <g id="Group_56" data-name="Group 56" transform="translate(16.005 12.614)">
      <g id="Group_55" data-name="Group 55">
        <path id="Path_242" data-name="Path 242" d="M29.846,268.65H27.741a2.515,2.515,0,0,0-1.241.327,2.56,2.56,0,0,0-.817.734,2.518,2.518,0,0,0-.436-.038H23.14a2.515,2.515,0,0,0-.436.038,2.558,2.558,0,0,0-.817-.734,2.515,2.515,0,0,0-1.241-.327H18.54a2.541,2.541,0,0,0-2.535,2.535v1.429a.272.272,0,0,0,.272.27H20.6v.751a.272.272,0,0,0,.272.272H27.51a.272.272,0,0,0,.272-.272v-.751H32.1a.272.272,0,0,0,.272-.272v-1.427A2.541,2.541,0,0,0,29.846,268.65Zm-9.221,3.315v.376H16.55v-1.155a2,2,0,0,1,1.991-1.991h2.105a1.972,1.972,0,0,1,.973.255,2.024,2.024,0,0,1,.528.43A2.549,2.549,0,0,0,20.625,271.965Zm6.607.244v1.157H21.149v-1.583l.011-.045.019-.068.013-.045a2,2,0,0,1,1.893-1.375l.054-.03h2.107a2,2,0,0,1,1.974,1.737.462.462,0,0,0,.011.124Zm4.605.133H27.781v-.789l-.013-.047v-.092l-.026-.073a2.556,2.556,0,0,0-1.382-1.448,2.022,2.022,0,0,1,.408-.443,1.972,1.972,0,0,1,.973-.255h2.107a2,2,0,0,1,1.991,1.991Z" transform="translate(-16.005 -268.65)" fill="#3b3b3b"/>
      </g>
    </g>
    <g id="Group_58" data-name="Group 58" transform="translate(23.897 3.347)">
      <g id="Group_57" data-name="Group 57">
        <circle id="Ellipse_1" data-name="Ellipse 1" cx="0.308" cy="0.308" r="0.308" fill="#3b3b3b"/>
      </g>
    </g>
    <g id="Group_60" data-name="Group 60" transform="translate(17.673 8.319)">
      <g id="Group_59" data-name="Group 59">
        <path id="Path_243" data-name="Path 243" d="M54.8,177.733a1.918,1.918,0,1,0,.56,1.356A1.91,1.91,0,0,0,54.8,177.733Zm-.385,2.323a1.373,1.373,0,1,1,.4-.971A1.373,1.373,0,0,1,54.419,180.057Z" transform="translate(-51.529 -177.17)" fill="#3b3b3b"/>
      </g>
    </g>
    <g id="Group_62" data-name="Group 62" transform="translate(25.887 3.347)">
      <g id="Group_61" data-name="Group 61">
        <circle id="Ellipse_2" data-name="Ellipse 2" cx="0.308" cy="0.308" r="0.308" fill="#3b3b3b"/>
      </g>
    </g>
    <g id="Group_64" data-name="Group 64" transform="translate(19.624 0)">
      <g id="Group_63" data-name="Group 63" transform="translate(0)">
        <path id="Path_244" data-name="Path 244" d="M100.862,1.067a5.356,5.356,0,0,0-6.416,0A3.393,3.393,0,0,0,93.085,3.71a3.121,3.121,0,0,0,.389,1.5,3.794,3.794,0,0,0,.956,1.127l-.216,1.437a.27.27,0,0,0,.4.274l1.469-.856a5.367,5.367,0,0,0,.71.16,5.637,5.637,0,0,0,.86.066,5.148,5.148,0,0,0,3.208-1.067,3.4,3.4,0,0,0,1.36-2.642A3.393,3.393,0,0,0,100.862,1.067Zm-.338,4.864a4.6,4.6,0,0,1-2.87.939,5.094,5.094,0,0,1-.776-.058,4.825,4.825,0,0,1-.751-.175.27.27,0,0,0-.218.024l-1.072.633.156-1.033A.272.272,0,0,0,94.882,6a3.3,3.3,0,0,1-.939-1.052,2.581,2.581,0,0,1-.319-1.24,2.86,2.86,0,0,1,1.155-2.22,4.854,4.854,0,0,1,5.739,0,2.848,2.848,0,0,1,1.155,2.22A2.86,2.86,0,0,1,100.524,5.931Z" transform="translate(-93.085 0)" fill="#3b3b3b"/>
      </g>
    </g>
    <g id="Group_66" data-name="Group 66" transform="translate(26.877 8.317)">
      <g id="Group_65" data-name="Group 65">
        <path id="Path_245" data-name="Path 245" d="M249.481,177.13a1.918,1.918,0,1,0,1.916,1.919A1.918,1.918,0,0,0,249.481,177.13Zm.969,2.888a1.373,1.373,0,1,1,0-1.942A1.373,1.373,0,0,1,250.451,180.018Z" transform="translate(-247.562 -177.13)" fill="#3b3b3b"/>
      </g>
    </g>
    <g id="Group_68" data-name="Group 68" transform="translate(21.906 3.347)">
      <g id="Group_67" data-name="Group 67">
        <circle id="Ellipse_3" data-name="Ellipse 3" cx="0.308" cy="0.308" r="0.308" fill="#3b3b3b"/>
      </g>
    </g>
    <g id="Group_70" data-name="Group 70" transform="translate(22.279 9.34)">
      <g id="Group_69" data-name="Group 69">
        <path id="Path_246" data-name="Path 246" d="M152.893,199.489a1.916,1.916,0,1,0,0,2.709A1.916,1.916,0,0,0,152.893,199.489Zm-1.354,2.733a1.373,1.373,0,1,1,1.373-1.372A1.373,1.373,0,0,1,151.539,202.222Z" transform="translate(-149.625 -198.93)" fill="#3b3b3b"/>
      </g>
    </g>
  </g>
</svg>
