<svg id="Profile" xmlns="http://www.w3.org/2000/svg" xmlns:xlink="http://www.w3.org/1999/xlink" width="155.791" height="155.791" viewBox="0 0 155.791 155.791">
  <defs>
    <clipPath id="clip-path">
      <rect id="Rectangle_33" data-name="Rectangle 33" width="155.791" height="155.791" rx="26" fill="#fff"/>
    </clipPath>
  </defs>
  <path id="Path_4908" data-name="Path 4908" d="M42.686,0H113.1a42.686,42.686,0,0,1,42.686,42.686V113.1A42.686,42.686,0,0,1,113.1,155.791H42.686A42.686,42.686,0,0,1,0,113.1V42.686A42.686,42.686,0,0,1,42.686,0Z" transform="translate(0 0)" fill="#d1d2f4"/>
  <g id="Mask_Group_3" data-name="Mask Group 3" transform="translate(0 0)" clip-path="url(#clip-path)">
    <path id="Path_13" data-name="Path 13" d="M422.543,707.964c-9.839,0-61,17.227-67.236-21.319-3.816-23.57,6.56-34.438,24.6-37.718,0,0-3.078-4.956,0-4.92,2.478.03,3.375,2.84,6.56,3.28,2.311.32-.945-3.611,1.64-3.28,2.821.362,4.89,4.384,8.2,3.28,9.839-3.28,21.142,7.968,24.6,9.839C433.083,663.716,434.022,707.964,422.543,707.964Z" transform="translate(-317.612 -621.967)" fill="#37474f"/>
    <rect id="Rectangle_12" data-name="Rectangle 12" width="23.805" height="36.613" transform="matrix(1, -0.013, 0.013, 1, 67.709, 98.745)" fill="#ffdfae"/>
    <path id="Path_14" data-name="Path 14" d="M373.487,704.86l-.162-12.27,23.8-.317.143,10.671s-1.487,4.731-10.807,4.854C376.9,707.927,373.487,704.86,373.487,704.86Z" transform="translate(-305.579 -591.069)" fill="#f4ca92"/>
    <path id="Path_15" data-name="Path 15" d="M426.474,684.49c-.071.917,5.351-3.319,5.605-1.028,1.64,14.759-5.992,13.855-6.56,16.4-3.155,14.131-9.839,19.679-18.039,22.959-3.588,1.435-16.689,3.347-21.319,0-4.288-3.1-13.119-6.56-18.039-18.039-2.763-6.45-11.479-3.28-13.119-18.039-.346-3.107,8.2,0,8.2,0s-1.624-6.977-1.64-8.2c-.449-33.825,19.007-12.481,31.158-14.759C418.96,658.863,428.8,653.944,426.474,684.49Z" transform="translate(-317.309 -612.225)" fill="#ffdfae"/>
    <path id="Path_16" data-name="Path 16" d="M458.044,744c-.1-7.543-11.392-18.479-21.319-27.878C431.565,711.234,420.784,703,413.767,703c0,0-1.64,9.84-11.479,8.2-10.159-1.693-10.687-5.564-12.347-7.363-.32-.346-11.989,1.807-20.451,9-11.965,10.174-21.858,27.339-21.755,35.027Z" transform="translate(-321.955 -584.205)" fill="#f74e88"/>
  </g>
</svg>
